FILE "Arislan Senki - The Heroic Legend of Arslan (1993)(Sega)(JP).img" BINARY
  TRACK 01 MODE1/2352
    INDEX 01 00:00:00
  TRACK 02 AUDIO
    PREGAP 00:02:00
    INDEX 01 02:23:28
  TRACK 03 AUDIO
    INDEX 00 04:10:02
    INDEX 01 04:12:02
  TRACK 04 AUDIO
    INDEX 00 05:36:09
    INDEX 01 05:38:09
  TRACK 05 AUDIO
    INDEX 00 06:45:07
    INDEX 01 06:47:07
  TRACK 06 AUDIO
    INDEX 00 07:54:25
    INDEX 01 07:56:25
  TRACK 07 AUDIO
    INDEX 00 08:47:33
    INDEX 01 08:49:33
  TRACK 08 AUDIO
    INDEX 00 09:58:47
    INDEX 01 10:00:47
  TRACK 09 AUDIO
    INDEX 00 10:40:47
    INDEX 01 10:42:47
  TRACK 10 AUDIO
    INDEX 00 11:36:20
    INDEX 01 11:38:20
  TRACK 11 AUDIO
    INDEX 00 12:27:71
    INDEX 01 12:29:71
  TRACK 12 AUDIO
    INDEX 00 12:41:40
    INDEX 01 12:43:40
  TRACK 13 AUDIO
    INDEX 00 14:02:16
    INDEX 01 14:04:16
  TRACK 14 AUDIO
    INDEX 00 15:06:55
    INDEX 01 15:08:55
  TRACK 15 AUDIO
    INDEX 00 16:13:68
    INDEX 01 16:15:68
  TRACK 16 AUDIO
    INDEX 00 17:02:31
    INDEX 01 17:04:31
  TRACK 17 AUDIO
    INDEX 00 17:30:67
    INDEX 01 17:32:67
  TRACK 18 AUDIO
    INDEX 00 17:56:72
    INDEX 01 17:58:72
  TRACK 19 AUDIO
    INDEX 00 19:06:22
    INDEX 01 19:08:22
  TRACK 20 AUDIO
    INDEX 00 19:37:67
    INDEX 01 19:39:67
  TRACK 21 AUDIO
    INDEX 00 20:48:10
    INDEX 01 20:50:10
  TRACK 22 AUDIO
    INDEX 00 21:06:26
    INDEX 01 21:08:26
  TRACK 23 AUDIO
    INDEX 00 21:47:51
    INDEX 01 21:49:51
  TRACK 24 AUDIO
    INDEX 00 22:12:55
    INDEX 01 22:14:55
  TRACK 25 AUDIO
    INDEX 00 22:31:16
    INDEX 01 22:33:16
  TRACK 26 AUDIO
    INDEX 00 22:42:21
    INDEX 01 22:44:21
  TRACK 27 AUDIO
    INDEX 00 22:56:05
    INDEX 01 22:58:05
  TRACK 28 AUDIO
    INDEX 00 23:12:09
    INDEX 01 23:14:09
  TRACK 29 AUDIO
    INDEX 00 23:34:44
    INDEX 01 23:36:44
  TRACK 30 AUDIO
    INDEX 00 23:55:25
    INDEX 01 23:57:25
  TRACK 31 AUDIO
    INDEX 00 25:11:19
    INDEX 01 25:13:19
  TRACK 32 AUDIO
    INDEX 00 26:10:45
    INDEX 01 26:12:45
  TRACK 33 AUDIO
    INDEX 00 27:02:13
    INDEX 01 27:04:13
  TRACK 34 AUDIO
    INDEX 00 27:57:40
    INDEX 01 27:59:40
  TRACK 35 AUDIO
    INDEX 00 28:22:16
    INDEX 01 28:24:16
  TRACK 36 AUDIO
    INDEX 00 28:55:21
    INDEX 01 28:57:21
  TRACK 37 AUDIO
    INDEX 00 29:31:41
    INDEX 01 29:33:41
  TRACK 38 AUDIO
    INDEX 00 29:57:13
    INDEX 01 29:59:13
  TRACK 39 AUDIO
    INDEX 00 30:35:32
    INDEX 01 30:37:32
  TRACK 40 AUDIO
    INDEX 00 30:57:42
    INDEX 01 30:59:42
  TRACK 41 AUDIO
    INDEX 00 31:12:55
    INDEX 01 31:14:55
  TRACK 42 AUDIO
    INDEX 00 32:39:68
    INDEX 01 32:41:68
  TRACK 43 AUDIO
    INDEX 00 33:25:71
    INDEX 01 33:27:71
  TRACK 44 AUDIO
    INDEX 00 34:01:28
    INDEX 01 34:03:28
  TRACK 45 AUDIO
    INDEX 00 34:42:69
    INDEX 01 34:44:69
  TRACK 46 AUDIO
    INDEX 00 35:52:49
    INDEX 01 35:54:49
  TRACK 47 AUDIO
    INDEX 00 36:56:33
    INDEX 01 36:58:33
  TRACK 48 AUDIO
    INDEX 00 37:50:09
    INDEX 01 37:52:09
  TRACK 49 AUDIO
    INDEX 00 38:34:74
    INDEX 01 38:36:74
  TRACK 50 AUDIO
    INDEX 00 39:25:69
    INDEX 01 39:27:69
  TRACK 51 AUDIO
    INDEX 00 40:16:27
    INDEX 01 40:18:27
  TRACK 52 AUDIO
    INDEX 00 40:33:27
    INDEX 01 40:35:27
  TRACK 53 AUDIO
    INDEX 00 40:56:07
    INDEX 01 40:58:07
  TRACK 54 AUDIO
    INDEX 00 41:35:10
    INDEX 01 41:37:10
  TRACK 55 AUDIO
    INDEX 00 41:44:74
    INDEX 01 41:46:74
  TRACK 56 AUDIO
    INDEX 00 42:16:73
    INDEX 01 42:18:73
  TRACK 57 AUDIO
    INDEX 00 42:55:57
    INDEX 01 42:57:57
  TRACK 58 AUDIO
    INDEX 00 43:11:37
    INDEX 01 43:13:37
  TRACK 59 AUDIO
    INDEX 00 44:08:42
    INDEX 01 44:10:42
